<?xml version="1.0" encoding="UTF-8" standalone="no"?><!DOCTYPE svg PUBLIC "-//W3C//DTD SVG 1.1//EN" "http://www.w3.org/Graphics/SVG/1.1/DTD/svg11.dtd"><svg width="100%" height="100%" viewBox="0 0 500 500" version="1.1" xmlns="http://www.w3.org/2000/svg" xmlns:xlink="http://www.w3.org/1999/xlink" xml:space="preserve" xmlns:serif="http://www.serif.com/" style="fill-rule:evenodd;clip-rule:evenodd;stroke-linejoin:round;stroke-miterlimit:2;"><path d="M62.308,358.393c6.892,50.624 97.239,143.042 188.889,53.622c41.809,-40.792 7.181,-35.083 98.783,-75.508c14.215,-6.273 61.496,-26.22 75.48,-32.48c8.53,-3.818 18.983,-10.2 21.569,-17.208c5.071,-13.743 -2.03,-22.423 -31.274,-15.528c-9.749,2.299 -86.386,33.001 -100.354,30.129c-22.032,-4.529 58.378,-46.893 84.936,-63.526c29.592,-18.533 36.508,-21.771 41.032,-29.854c6.219,-11.112 6.931,-37.649 -29.307,-24.734c-12.648,4.508 -113.443,67.632 -120.629,57.962c-6.917,-9.309 101.228,-100.043 114.59,-118.557c8.372,-11.599 -10.049,-34.056 -31.968,-20.714c-8.937,5.44 -112.586,99.238 -122.209,99.846c-22.506,1.422 45.699,-80.606 73.779,-120.416c11.596,-16.44 -15.501,-46.607 -39.729,-20.859c-12.923,13.734 -92.515,127.648 -108.59,145.09c-48.765,52.915 -54.622,36.953 -63.008,22.952c-7.609,-12.705 -5.918,-58.335 -14.684,-81.15c-8.203,-21.351 -16.063,-28.917 -24.028,-29.782c-7.965,-0.865 -26.962,3.76 -23.761,24.591c12.292,79.984 8.414,108.77 7.208,144.814c-0.624,18.661 -0.675,16.805 0.462,43.651c0.298,7.028 1.139,15.371 2.811,27.658Z" style="fill:#a9d42d;"/></svg>